HIERARCHY
ROOT hip
{
  OFFSET 0 0 0
  CHANNELS 6 Xposition Yposition Zposition Zrotation Yrotation Xrotation
  JOINT abdomen
  {
    OFFSET 0 20.6881 -0.73152
    CHANNELS 3 Zrotation Xrotation Yrotation
    JOINT chest
    {
      OFFSET 0 11.7043 -0.48768
      CHANNELS 3 Zrotation Xrotation Yrotation
      JOINT neck
      {
        OFFSET 0 22.1894 -2.19456
        CHANNELS 3 Zrotation Xrotation Yrotation
        JOINT head
        {
          OFFSET -0.24384 7.07133 1.2192
          CHANNELS 3 Zrotation Xrotation Yrotation
          JOINT leftEye
          {
            OFFSET 4.14528 8.04674 8.04672
            CHANNELS 3 Zrotation Xrotation Yrotation
            End Site
            {
              OFFSET 1 0 0
            }
          }
          JOINT rightEye
          {
            OFFSET -3.6576 8.04674 8.04672
            CHANNELS 3 Zrotation Xrotation Yrotation
            End Site
            {
              OFFSET 1 0 0
            }
          }
        }
      }
      JOINT rCollar
      {
        OFFSET -2.68224 19.2634 -4.8768
        CHANNELS 3 Zrotation Xrotation Yrotation
        JOINT rShldr
        {
          OFFSET -8.77824 -1.95073 1.46304
          CHANNELS 3 Zrotation Xrotation Yrotation
          JOINT rForeArm
          {
            OFFSET -28.1742 -1.7115 0.48768
            CHANNELS 3 Zrotation Xrotation Yrotation
            JOINT rHand
            {
              OFFSET -22.5879 0.773209 7.07136
              CHANNELS 3 Zrotation Xrotation Yrotation
              JOINT rThumb1
              {
                OFFSET -1.2192 -0.487915 3.41376
                CHANNELS 3 Zrotation Xrotation Yrotation
                JOINT rThumb2
                {
                  OFFSET -3.37035 -0.52449 3.41376
                  CHANNELS 3 Zrotation Xrotation Yrotation
                  End Site
                  {
                    OFFSET -1.78271 -1.18214 1.43049
                  }
                }
              }
              JOINT rIndex1
              {
                OFFSET -7.75947 0.938293 5.60832
                CHANNELS 3 Zrotation Xrotation Yrotation
                JOINT rIndex2
                {
                  OFFSET -2.54057 -0.884171 1.56538
                  CHANNELS 3 Zrotation Xrotation Yrotation
                  End Site
                  {
                    OFFSET -1.62519 -0.234802 1.16502
                  }
                }
              }
              JOINT rMid1
              {
                OFFSET -8.24714 1.18213 3.41376
                CHANNELS 3 Zrotation Xrotation Yrotation
                JOINT rMid2
                {
                  OFFSET -3.10165 -0.590103 1.0647
                  CHANNELS 3 Zrotation Xrotation Yrotation
                  End Site
                  {
                    OFFSET -2.48547 -0.328903 0.83742
                  }
                }
              }
              JOINT rRing1
              {
                OFFSET -8.82822 0.546677 1.51678
                CHANNELS 3 Zrotation Xrotation Yrotation
                JOINT rRing2
                {
                  OFFSET -2.60934 -0.819778 -0.0198488
                  CHANNELS 3 Zrotation Xrotation Yrotation
                  End Site
                  {
                    OFFSET -2.33842 -0.294052 0.168128
                  }
                }
              }
              JOINT rPinky1
              {
                OFFSET -8.27202 -0.0477905 -0.4584
                CHANNELS 3 Zrotation Xrotation Yrotation
                JOINT rPinky2
                {
                  OFFSET -1.82734 -0.647385 -0.700984
                  CHANNELS 3 Zrotation Xrotation Yrotation
                  End Site
                  {
                    OFFSET -1.69225 -0.51767 -0.607171
                  }
                }
              }
            }
          }
        }
      }
      JOINT lCollar
      {
        OFFSET 2.68224 19.2634 -4.8768
        CHANNELS 3 Zrotation Xrotation Yrotation
        JOINT lShldr
        {
          OFFSET 8.77824 -1.95073 1.46304
          CHANNELS 3 Zrotation Xrotation Yrotation
          JOINT lForeArm
          {
            OFFSET 28.1742 -1.7115 0.48768
            CHANNELS 3 Zrotation Xrotation Yrotation
            JOINT lHand
            {
              OFFSET 22.5879 0.773209 7.07136
              CHANNELS 3 Zrotation Xrotation Yrotation
              JOINT lThumb1
              {
                OFFSET 1.2192 -0.487915 3.41376
                CHANNELS 3 Zrotation Xrotation Yrotation
                JOINT lThumb2
                {
                  OFFSET 3.37035 -0.52449 3.41376
                  CHANNELS 3 Zrotation Xrotation Yrotation
                  End Site
                  {
                    OFFSET 1.78271 -1.18214 1.43049
                  }
                }
              }
              JOINT lIndex1
              {
                OFFSET 7.75947 0.938293 5.60832
                CHANNELS 3 Zrotation Xrotation Yrotation
                JOINT lIndex2
                {
                  OFFSET 2.54057 -0.884171 1.56538
                  CHANNELS 3 Zrotation Xrotation Yrotation
                  End Site
                  {
                    OFFSET 1.62519 -0.234802 1.16502
                  }
                }
              }
              JOINT lMid1
              {
                OFFSET 8.24714 1.18213 3.41376
                CHANNELS 3 Zrotation Xrotation Yrotation
                JOINT lMid2
                {
                  OFFSET 3.10165 -0.590103 1.0647
                  CHANNELS 3 Zrotation Xrotation Yrotation
                  End Site
                  {
                    OFFSET 2.48547 -0.328903 0.83742
                  }
                }
              }
              JOINT lRing1
              {
                OFFSET 8.82822 0.546677 1.51678
                CHANNELS 3 Zrotation Xrotation Yrotation
                JOINT lRing2
                {
                  OFFSET 2.60934 -0.819778 -0.0198488
                  CHANNELS 3 Zrotation Xrotation Yrotation
                  End Site
                  {
                    OFFSET 2.33842 -0.294052 0.168128
                  }
                }
              }
              JOINT lPinky1
              {
                OFFSET 8.27202 -0.0477905 -0.4584
                CHANNELS 3 Zrotation Xrotation Yrotation
                JOINT lPinky2
                {
                  OFFSET 1.82734 -0.647385 -0.700984
                  CHANNELS 3 Zrotation Xrotation Yrotation
                  End Site
                  {
                    OFFSET 1.69225 -0.51767 -0.607171
                  }
                }
              }
            }
          }
        }
      }
    }
  }
  JOINT rButtock
  {
    OFFSET -8.77824 4.35084 1.2192
    CHANNELS 3 Zrotation Xrotation Yrotation
    JOINT rThigh
    {
      OFFSET 0 -1.70687 -2.19456
      CHANNELS 3 Zrotation Xrotation Yrotation
      JOINT rShin
      {
        OFFSET 0 -36.8199 0.73152
        CHANNELS 3 Zrotation Xrotation Yrotation
        JOINT rFoot
        {
          OFFSET 0.73152 -45.1104 -5.12064
          CHANNELS 3 Zrotation Xrotation Yrotation
          End Site
          {
            OFFSET -1.1221 -3.69964 12.103
          }
        }
      }
    }
  }
  JOINT lButtock
  {
    OFFSET 8.77824 4.35084 1.2192
    CHANNELS 3 Zrotation Xrotation Yrotation
    JOINT lThigh
    {
      OFFSET 0 -1.70687 -2.19456
      CHANNELS 3 Zrotation Xrotation Yrotation
      JOINT lShin
      {
        OFFSET 0 -36.8199 0.73152
        CHANNELS 3 Zrotation Xrotation Yrotation
        JOINT lFoot
        {
          OFFSET -0.73152 -45.1104 -5.12064
          CHANNELS 3 Zrotation Xrotation Yrotation
          End Site
          {
            OFFSET 1.1221 -3.69964 12.103
          }
        }
      }
    }
  }
}
MOTION
Frames:	5
Frame Time:	0.00833333
-8.79964 80.6112 -6.68881 366.155 6.7612 1088.67 -3.73074 4.89487 -23.8738 5.63186 -6.26704 -6.57437 -16.4058 2.83023 -6.15223 20.1596 0.292698 -8.54664 -0.0 0.0 0.0 -0.0 0.0 0.0 -6.52178e-14 -1.5823e-13 -4.61081e-13 61.5605 35.1947 -5.05012 -28.4101 -36.7962 78.3499 -0.574549 -21.0216 -3.09601 1.69661e-09 1.6769e-09 2.18665e-09 2.89588e-09 3.06549e-09 3.80496e-09 1.69662e-09 1.6769e-09 2.18663e-09 7.73091 5.47488 0.417314 1.69661e-09 1.67689e-09 2.18664e-09 2.90554 0.965183 0.102902 1.69662e-09 1.67689e-09 2.18664e-09 10.2786 0.731801 0.0259123 1.6966e-09 1.6769e-09 2.18665e-09 2.22167 -0.733487 -0.20892 -6.51892e-14 -1.58235e-13 -4.6128e-13 -67.3762 33.2478 -38.5059 18.7132 -11.4746 -35.6405 5.18568 -52.4018 10.5159 1.28504e-09 6.64774e-10 -1.98399e-09 2.29427e-09 1.37563e-09 -3.36305e-09 1.28504e-09 6.6479e-10 -1.98397e-09 -7.73091 5.47488 -0.417314 1.28504e-09 6.64785e-10 -1.98399e-09 -2.90554 0.965183 -0.102902 1.28503e-09 6.64786e-10 -1.98399e-09 -10.2786 0.731801 -0.0259123 1.28504e-09 6.64783e-10 -1.98399e-09 -2.22167 -0.733487 0.20892 -2.03217e-16 0.0 -3.88251e-19 -19.7831 -32.6814 -10.6894 -0.622198 51.1025 1.09682 -2.50067 -2.05546 -15.59 2.03217e-16 0.0 3.88251e-19 -13.2214 -29.5717 -8.09134 0.300529 39.2391 -0.793198 3.14194 -18.1161 7.03819
-8.906 80.3456 -7.47133 366.52 7.6235 1088.65 -4.55039 5.25015 -24.4305 5.64862 -6.40154 -6.74571 -16.4758 2.18739 -5.73602 19.8851 1.57431 -7.75551 -0.0 0.0 0.0 -0.0 0.0 0.0 -1.22039e-13 -1.83165e-13 -4.17941e-13 63.6667 38.1378 -7.16481 -28.3685 -37.6504 79.7797 -0.548855 -20.5033 -3.01331 1.41687e-09 8.23807e-10 1.69187e-09 2.41947e-09 1.55238e-09 2.94609e-09 1.41688e-09 8.23805e-10 1.69186e-09 7.73091 5.47488 0.417314 1.41688e-09 8.23801e-10 1.69186e-09 2.90554 0.965183 0.102902 1.41688e-09 8.23794e-10 1.69187e-09 10.2786 0.731801 0.0259123 1.41687e-09 8.23803e-10 1.69188e-09 2.22167 -0.733487 -0.20892 -1.22048e-13 -1.8317e-13 -4.18144e-13 -68.4331 30.9854 -39.4807 17.9785 -10.6415 -34.0511 4.48422 -49.9629 9.62202 1.36189e-09 1.24351e-09 -1.79922e-09 2.41694e-09 2.35391e-09 -3.04407e-09 1.36188e-09 1.24352e-09 -1.7992e-09 -7.73091 5.47488 -0.417314 1.36189e-09 1.24352e-09 -1.79921e-09 -2.90554 0.965183 -0.102902 1.36188e-09 1.24352e-09 -1.79922e-09 -10.2786 0.731801 -0.0259123 1.36188e-09 1.24352e-09 -1.79922e-09 -2.22167 -0.733487 0.20892 -2.03217e-16 0.0 -3.88251e-19 -19.2401 -33.0715 -9.45964 -0.802458 55.2537 1.29498 -2.21271 -1.67684 -13.7007 2.03217e-16 0.0 3.88251e-19 -14.1885 -30.2487 -9.44415 0.316985 40.0488 -0.802408 3.03456 -18.0271 6.81265
-9.02209 80.1415 -8.21809 366.826 8.7025 1088.47 -5.4393 5.63701 -24.7935 5.62189 -6.57236 -6.86556 -16.5682 1.54137 -5.29419 19.5342 2.90329 -6.90715 -0.0 0.0 0.0 -0.0 0.0 0.0 -1.95062e-13 -2.17767e-13 -3.06026e-13 66.3708 41.2028 -9.82014 -28.3005 -38.5299 81.2459 -0.515549 -19.7407 -2.89352 8.88171e-10 -8.36532e-10 6.92184e-10 1.52086e-09 -1.39093e-09 1.21132e-09 8.88178e-10 -8.3653e-10 6.92176e-10 7.73091 5.47488 0.417314 8.88171e-10 -8.36538e-10 6.92177e-10 2.90554 0.965183 0.102902 8.88179e-10 -8.36542e-10 6.92183e-10 10.2786 0.731801 0.0259123 8.88163e-10 -8.36535e-10 6.92193e-10 2.22167 -0.733487 -0.20892 -1.9514e-13 -2.17771e-13 -3.06228e-13 -69.7887 28.7875 -40.114 17.3633 -10.0034 -32.6655 3.83696 -47.3591 8.76524 1.4051e-09 2.10326e-09 -1.36645e-09 2.47105e-09 3.79605e-09 -2.30038e-09 1.4051e-09 2.10327e-09 -1.36644e-09 -7.73091 5.47488 -0.417314 1.4051e-09 2.10327e-09 -1.36645e-09 -2.90554 0.965183 -0.102902 1.40509e-09 2.10327e-09 -1.36645e-09 -10.2786 0.731801 -0.0259123 1.4051e-09 2.10326e-09 -1.36646e-09 -2.22167 -0.733487 0.20892 -2.03217e-16 0.0 -3.88251e-19 -18.7108 -33.0497 -8.09553 -1.00201 59.0249 1.50261 -1.81873 -0.978659 -11.5382 2.03217e-16 0.0 3.88251e-19 -15.0958 -30.7053 -10.5262 0.329115 40.5682 -0.79752 2.90675 -17.8594 6.56581
-9.18531 79.9923 -8.94635 367.028 10.0401 1088.2 -6.24367 5.99653 -24.9884 5.49077 -6.7392 -6.94286 -16.6105 0.917522 -4.87518 19.1239 4.23425 -6.11328 -0.0 0.0 0.0 -0.0 0.0 0.0 -2.54774e-13 -2.50629e-13 -1.77812e-13 69.6721 44.1033 -12.9419 -28.2025 -39.3069 82.6087 -0.456033 -18.5614 -2.70792 3.47532e-10 -2.32466e-09 -4.25875e-10 6.0284e-10 -4.04038e-09 -7.2857e-10 3.47538e-10 -2.32465e-09 -4.2588e-10 7.73091 5.47488 0.417314 3.47532e-10 -2.32466e-09 -4.2588e-10 2.90554 0.965183 0.102902 3.47542e-10 -2.32467e-09 -4.25873e-10 10.2786 0.731801 0.0259123 3.47525e-10 -2.32466e-09 -4.25863e-10 2.22167 -0.733487 -0.20892 -2.54918e-13 -2.50632e-13 -1.78012e-13 -71.1202 26.848 -40.5476 16.8644 -9.51666 -31.5248 3.32184 -44.9279 8.048 1.38912e-09 2.88547e-09 -8.4428e-10 2.42016e-09 5.09576e-09 -1.40455e-09 1.38912e-09 2.88548e-09 -8.44267e-10 -7.73091 5.47488 -0.417314 1.38913e-09 2.88548e-09 -8.4428e-10 -2.90554 0.965183 -0.102902 1.38912e-09 2.88548e-09 -8.44281e-10 -10.2786 0.731801 -0.0259123 1.38913e-09 2.88548e-09 -8.44289e-10 -2.22167 -0.733487 0.20892 -2.03217e-16 0.0 -3.88251e-19 -18.1559 -32.6048 -6.70735 -1.20636 62.1694 1.71083 -1.43663 -0.201291 -9.26767 2.03217e-16 0.0 3.88251e-19 -15.9216 -31.0291 -11.511 0.337515 40.8686 -0.782551 2.72945 -17.6379 6.21444
-9.3883 79.8715 -9.68658 367.209 11.4301 1088.04 -6.80975 6.26959 -25.0399 5.1945 -6.86173 -6.98649 -16.5332 0.341431 -4.52728 18.6845 5.52076 -5.48591 -0.0 0.0 0.0 -0.0 0.0 0.0 -2.71659e-13 -2.70347e-13 -8.57756e-14 73.4593 46.5687 -16.3761 -28.0966 -39.8702 83.6894 -0.358844 -16.7928 -2.43079 3.19884e-11 -2.66112e-09 -1.27577e-09 6.82134e-11 -4.67189e-09 -2.2028e-09 3.19936e-11 -2.66111e-09 -1.27578e-09 7.73091 5.47488 0.417314 3.19879e-11 -2.66112e-09 -1.27578e-09 2.90554 0.965183 0.102902 3.19999e-11 -2.66112e-09 -1.27577e-09 10.2786 0.731801 0.0259123 3.19833e-11 -2.66112e-09 -1.27576e-09 2.22167 -0.733487 -0.20892 -2.71836e-13 -2.70349e-13 -8.59744e-14 -72.1214 25.3542 -40.8898 16.4715 -9.13272 -30.6743 2.97199 -43.0109 7.53355 1.28842e-09 3.23163e-09 -3.91281e-10 2.22781e-09 5.64674e-09 -6.29192e-10 1.28842e-09 3.23163e-09 -3.91269e-10 -7.73091 5.47488 -0.417314 1.28842e-09 3.23164e-09 -3.91281e-10 -2.90554 0.965183 -0.102902 1.28841e-09 3.23164e-09 -3.91281e-10 -10.2786 0.731801 -0.0259123 1.28842e-09 3.23164e-09 -3.91291e-10 -2.22167 -0.733487 0.20892 -2.03217e-16 0.0 -3.88251e-19 -17.5352 -31.7312 -5.40611 -1.38771 64.4405 1.89675 -1.14009 0.404382 -7.05083 2.03217e-16 0.0 3.88251e-19 -16.6595 -31.2999 -12.5795 0.343194 41.0212 -0.761848 2.47485 -17.3865 5.67566
